<?xml version="1.0" encoding="UTF-8"?>
<svg version="1.1" xmlns="http://www.w3.org/2000/svg" width="300" height="300">
<path d="M0 0 C1.2050777 -0.00679667 1.2050777 -0.00679667 2.4345004 -0.01373065 C5.11192581 -0.02633597 7.78914681 -0.02475679 10.46659851 -0.02310181 C12.39227051 -0.02908946 14.31794011 -0.03589556 16.24360657 -0.04345703 C21.46478424 -0.06109982 26.68589632 -0.06581168 31.90710092 -0.0670886 C35.1718204 -0.06851171 38.43652328 -0.07278432 41.70123863 -0.07808304 C53.09845918 -0.09657745 64.49563299 -0.10475436 75.89286804 -0.10317993 C86.50440362 -0.10197862 97.11573577 -0.12308056 107.72721988 -0.15466726 C116.84847063 -0.18084723 125.96965501 -0.19154651 135.09094304 -0.19026911 C140.53393058 -0.18976 145.97673727 -0.1954154 151.41968727 -0.21662521 C156.540745 -0.23603656 161.66144988 -0.23611216 166.78252029 -0.22159195 C168.65696035 -0.21950638 170.53142265 -0.22418969 172.40582466 -0.23631287 C189.56561701 -0.34006882 189.56561701 -0.34006882 196.90321636 3.38165855 C199.61719426 4.68573639 201.97621073 4.56247902 204.93412781 4.32992554 C214.34728565 4.04139963 219.15155388 8.19195944 225.74662781 14.26742554 C229.20676017 17.58990067 232.62034767 20.95530251 236.01200867 24.34750366 C237.56856046 25.90184479 239.13298371 27.44797232 240.69779968 28.99398804 C241.70024102 29.99349864 242.70221128 30.99348196 243.70365906 31.99398804 C244.60060486 32.88682495 245.49755066 33.77966187 246.42167664 34.69955444 C250.70850213 39.4342841 252.52268452 43.30017703 252.99662781 49.57992554 C252.44352248 57.73822914 248.33772963 62.66926963 242.74662781 68.26742554 C241.22479105 69.51406725 239.70151216 70.75931965 238.15570003 71.97610539 C227.53013602 80.35908766 216.58048334 89.27773109 214.43171692 103.31671143 C213.3093402 112.86143398 213.65519862 122.49890785 214.00725102 132.08094096 C214.15527079 136.90902376 214.14900078 141.73713331 214.1600647 146.56712341 C214.20299495 155.68330967 214.37500067 164.79193111 214.59837574 173.90529686 C214.89559726 186.28253445 215.00782696 198.66119243 215.12493217 211.04120934 C215.15330169 214.02861329 215.18231638 217.01600977 215.21182251 220.00340271 C215.22128527 220.97250645 215.23074802 221.94161018 215.24049753 222.9400807 C215.30050477 228.66146143 215.39203094 234.38124162 215.51391137 240.10163486 C215.58908057 243.65836546 215.65325127 247.21525882 215.7167244 250.77221489 C215.74925215 252.41093775 215.78736485 254.04956156 215.83170509 255.68800735 C216.17764246 268.51994268 215.53103016 280.12421584 206.74662781 290.26742554 C195.82523528 300.83916897 184.13406015 300.70980451 169.81547546 300.67147827 C167.8911296 300.67718629 165.96678713 300.68415221 164.04244995 300.692276 C158.83368367 300.71017556 153.62508615 300.70904494 148.41629839 300.70333362 C144.06009096 300.7002369 139.70391572 300.70633965 135.34771287 300.71237236 C125.06659463 300.7264057 114.7855595 300.72486642 104.50444031 300.71347046 C93.91559376 300.7019924 83.32700059 300.71606247 72.73818743 300.74286693 C63.63046034 300.76505473 54.52281259 300.7716543 45.4150604 300.76579052 C39.98270115 300.76242689 34.55050427 300.76479651 29.11816788 300.78204155 C24.00773448 300.7975575 18.89767511 300.79350356 13.78725624 300.7747364 C11.91807817 300.77106328 10.04887211 300.7741215 8.17971992 300.78462219 C-4.96591147 300.85280097 -16.23046634 300.25115249 -26.24165344 290.68930054 C-31.53699312 284.3143285 -35.367199 276.36174403 -35.38759327 267.99532223 C-35.39205111 267.1441932 -35.39650896 266.29306417 -35.40110189 265.41614336 C-35.40091752 264.48590666 -35.40073316 263.55566996 -35.40054321 262.59724426 C-35.4042199 261.60520101 -35.40789659 260.61315776 -35.41168469 259.59105259 C-35.42272327 256.25717886 -35.4265657 252.9233363 -35.43037415 249.58944702 C-35.43663871 247.20279338 -35.44328551 244.81614072 -35.45028687 242.42948914 C-35.46951483 235.26011417 -35.48011574 228.09073863 -35.48901466 220.92134508 C-35.49340112 217.54217267 -35.49876705 214.16300182 -35.50400352 210.78383064 C-35.52101496 199.54518554 -35.53550762 188.3065414 -35.54275227 177.0678854 C-35.54466205 174.15254655 -35.5465824 171.23720771 -35.54853821 168.3218689 C-35.54902195 167.59730631 -35.54950569 166.87274373 -35.55000409 166.1262247 C-35.55829876 154.39711579 -35.58362649 142.66810904 -35.61611889 130.93904471 C-35.649232 118.88728066 -35.66720491 106.83556846 -35.67039651 94.7837587 C-35.67255782 88.0211081 -35.68125055 81.25860644 -35.70685768 74.49600029 C-35.73015741 68.13071778 -35.73436372 61.76570284 -35.7240963 55.40038872 C-35.72360128 53.06840118 -35.72991155 50.73640039 -35.74365234 48.40445328 C-35.76140878 45.2114814 -35.75424596 42.01946589 -35.74111938 38.82649231 C-35.75208863 37.91187066 -35.76305788 36.99724901 -35.77435952 36.05491155 C-35.675704 26.05951039 -32.36450761 16.45437263 -25.25337219 9.26742554 C-17.35973388 2.66547349 -10.36053446 -0.04340381 0 0 Z " fill="#CCD6DD" transform="translate(43.25337219238281,-0.267425537109375)"/>
<path d="M0 0 C3.69379583 1.73105845 6.06094178 3.81898787 8.95214844 6.72509766 C9.4306575 7.20331467 9.90916656 7.68153168 10.4021759 8.17424011 C11.97603195 9.74948483 13.54269293 11.33168535 15.109375 12.9140625 C16.20181286 14.01023213 17.29469434 15.10595981 18.38800049 16.20126343 C21.25951242 19.08039888 24.12496654 21.96549056 26.98919678 24.85186768 C29.91494126 27.79809815 32.84638014 30.73865069 35.77734375 33.6796875 C41.52381482 39.44758588 47.26389806 45.22178964 53 51 C51.54190191 54.35483438 49.69713436 56.55011664 47.11495972 59.12554932 C46.3044516 59.93880676 45.49394348 60.75206421 44.65887451 61.58996582 C43.32315399 62.91490051 43.32315399 62.91490051 41.96044922 64.26660156 C41.0139238 65.21256265 40.06783893 66.15896473 39.12216187 67.10577393 C36.55657326 69.67193618 33.98486641 72.23188665 31.41201925 74.79076862 C28.72318166 77.46710097 26.04000938 80.1491008 23.35623169 82.83050537 C18.27456387 87.90595783 13.18781945 92.97629063 8.09923279 98.04480529 C2.30575182 103.81592905 -3.48204897 109.59273507 -9.2693789 115.37002611 C-21.17327565 127.25301957 -33.08428765 139.12885446 -45 151 C-49.15701684 147.50191226 -53.17800579 143.94615486 -57.01733398 140.09619141 C-57.93775986 139.17569 -58.85818573 138.2551886 -59.8065033 137.30679321 C-60.78642152 136.32177076 -61.76628374 135.33669259 -62.74609375 134.3515625 C-63.76720048 133.32858694 -64.788531 132.30583472 -65.81007385 131.28329468 C-68.47711353 128.61246639 -71.14113436 125.93864718 -73.80450439 123.26416016 C-76.5312385 120.52713264 -79.26086305 117.79299099 -81.99023438 115.05859375 C-87.32963089 109.70852452 -92.66583652 104.35528727 -98 99 C-93.24294527 93.27785704 -88.144737 88.00861532 -82.87353516 82.76000977 C-81.97533051 81.86165909 -81.07712585 80.96330841 -80.15170288 80.03773499 C-77.70808822 77.59383539 -75.26141992 75.15301438 -72.81415987 72.71276593 C-70.24990276 70.15479327 -67.68850909 67.59395649 -65.12680054 65.03343201 C-60.28410235 60.1938322 -55.4388625 55.35678547 -50.59268701 50.52066797 C-45.07192327 45.01111191 -39.55402528 39.49868953 -34.03635716 33.98603356 C-22.69407344 22.65418039 -11.34822555 11.32590282 0 0 Z " fill="#FECC4C" transform="translate(197,50)"/>
<path d="M0 0 C0.66 0 1.32 0 2 0 C2.24844463 6.24360454 2.4292204 12.48429541 2.54931641 18.73168945 C2.59940377 20.85329332 2.66749899 22.97455545 2.75439453 25.0949707 C3.45766239 42.70562522 3.45766239 42.70562522 -0.10791016 48.31787109 C-2.63361191 50.6017851 -5.064931 52.29070562 -8 54 C-9.55896018 55.22836446 -11.10330822 56.47575896 -12.625 57.75 C-13.44355469 58.39582031 -14.26210937 59.04164063 -15.10546875 59.70703125 C-18.74096558 62.58697273 -22.33977578 65.51059488 -25.9375 68.4375 C-26.62948486 69.00017578 -27.32146973 69.56285156 -28.03442383 70.14257812 C-34.62384769 75.50314876 -41.1991184 80.88091496 -47.765625 86.26953125 C-52.05492779 89.78604066 -56.35141413 93.29128267 -60.6875 96.75 C-69.36035178 103.67186593 -77.97595482 110.66690509 -86.52734375 117.73828125 C-87.27491943 118.35622559 -88.02249512 118.97416992 -88.79272461 119.61083984 C-90.21812741 120.79045092 -91.64221494 121.97165395 -93.06469727 123.15478516 C-95.03233485 124.78362262 -97.01363813 126.39407358 -99 128 C-99.65726074 128.545354 -100.31452148 129.09070801 -100.99169922 129.65258789 C-105.52366482 133.27141275 -109.48341185 135.27568178 -115.125 136.5625 C-115.93904297 136.75884033 -116.75308594 136.95518066 -117.59179688 137.1574707 C-131.04077366 140.1592195 -144.87022121 141.51343796 -158.53601074 143.16712952 C-163.95133637 143.83382513 -169.31133105 144.68941859 -174.67138672 145.71704102 C-177.89080934 146.10824576 -180.15035841 145.49981136 -183 144 C-183.66 143.34 -184.32 142.68 -185 142 C-184.94140625 139.65234375 -184.94140625 139.65234375 -184.5625 136.9375 C-184.33879286 135.29619603 -184.14262095 133.65032811 -184 132 C-184.33 131.67 -184.66 131.34 -185 131 C-185.81349516 123.81412606 -183.94739743 117.0916627 -180 111 C-177.30686757 109.95917587 -175.73534108 109.82312819 -172.9375 110.49609375 C-167.57725531 113.10056748 -164.1840479 116.36137633 -162 122 C-161.875 124.75390625 -161.875 124.75390625 -162 127 C-160.67162109 126.54560547 -160.67162109 126.54560547 -159.31640625 126.08203125 C-152.43482481 123.75475345 -145.54872892 121.55406769 -138.5625 119.5625 C-127.12195266 116.25765675 -115.91827859 112.74442944 -106 106 C-105.34 106 -104.68 106 -104 106 C-103.74943501 105.4245343 -103.49887003 104.8490686 -103.24071217 104.25616455 C-101.82920371 101.68941665 -100.2205946 99.97174301 -98.14860535 97.90136719 C-96.94368187 96.69015198 -96.94368187 96.69015198 -95.7144165 95.45446777 C-94.83179138 94.57746216 -93.94916626 93.70045654 -93.03979492 92.796875 C-92.11119156 91.86637329 -91.1825882 90.93587158 -90.22584534 89.97717285 C-87.68068713 87.42717048 -85.12932713 84.88345759 -82.57667708 82.34095764 C-79.90381141 79.6768843 -77.236228 77.00753135 -74.56794739 74.33886719 C-70.08475231 69.85660853 -65.59770268 65.37823828 -61.1081543 60.90234375 C-55.92323013 55.73313045 -50.74353611 50.55872412 -45.56682891 45.38128281 C-40.05017139 39.86394871 -34.52970808 34.35043463 -29.00812745 28.83802795 C-27.42033684 27.25236492 -25.83325462 25.6659958 -24.24632835 24.07946777 C-21.28334155 21.1176761 -18.31610984 18.16017281 -15.34838867 15.203125 C-14.47183624 14.32611938 -13.59528381 13.44911377 -12.69216919 12.54553223 C-11.8804274 11.73805542 -11.06868561 10.93057861 -10.23234558 10.09863281 C-9.18124997 9.05005096 -9.18124997 9.05005096 -8.1089201 7.98028564 C-6 6 -6 6 -3.2979784 3.86883545 C-0.93163784 2.20640509 -0.93163784 2.20640509 0 0 Z " fill="#66757E" transform="translate(256,96)"/>
<path d="M0 0 C3.78301227 1.56943684 6.17256547 3.93101277 9.04394531 6.81689453 C9.53220795 7.30486511 10.02047058 7.79283569 10.52352905 8.29559326 C12.12984962 9.90330275 13.72897713 11.51797101 15.328125 13.1328125 C16.44298317 14.25140235 17.55828487 15.36955029 18.67401123 16.48727417 C21.60470609 19.42559325 24.52934422 22.36986955 27.45275879 25.31542969 C30.43882725 28.32198262 33.43058859 31.32285882 36.421875 34.32421875 C42.28683456 40.21060686 48.14540732 46.103301 54 52 C51.42413485 54.64884343 49.40522887 56.54175137 45.98046875 57.96484375 C45.213396 58.28735107 44.44632324 58.6098584 43.65600586 58.94213867 C42.84139893 59.27060791 42.02679199 59.59907715 41.1875 59.9375 C40.33873291 60.28594971 39.48996582 60.63439941 38.61547852 60.9934082 C6.51647596 74 6.51647596 74 -4 74 C-4.15855469 73.40832031 -4.31710938 72.81664062 -4.48046875 72.20703125 C-6.04041644 66.9238935 -7.53366513 63.50926311 -12 60 C-15.41839049 58.24911706 -17.06384019 58 -21 58 C-21.66 58.99 -22.32 59.98 -23 61 C-23 60.34 -23 59.68 -23 59 C-23.85754883 59.02094727 -24.71509766 59.04189453 -25.59863281 59.06347656 C-28.78918472 59.13176527 -31.97936346 59.18185513 -35.17041016 59.21972656 C-36.5497668 59.23980642 -37.92903869 59.26707666 -39.30810547 59.30175781 C-41.29356979 59.35042817 -43.27966254 59.37086418 -45.265625 59.390625 C-46.45961914 59.41157227 -47.65361328 59.43251953 -48.88378906 59.45410156 C-52.60478556 58.91186923 -53.74175602 57.94214586 -56 55 C-56.53125 53 -56.53125 53 -56.5 51 C-56.5103125 50.34 -56.520625 49.68 -56.53125 49 C-55.73118297 45.98798294 -54.46245898 44.90745637 -52 43 C-49.19303997 42.58213298 -46.76148059 42.39525687 -43.953125 42.390625 C-43.18192322 42.37408875 -42.41072144 42.35755249 -41.6161499 42.34051514 C-39.16068546 42.29205407 -36.70584016 42.27066963 -34.25 42.25 C-32.58200013 42.22183854 -30.91402908 42.19191086 -29.24609375 42.16015625 C-25.16377833 42.08297815 -21.08341449 42.04244714 -17 42 C-15.35 36.72 -13.7 31.44 -12 26 C-16.13595703 26.08701172 -16.13595703 26.08701172 -20.35546875 26.17578125 C-23.03292974 26.21480111 -25.71035878 26.24514603 -28.38793945 26.2746582 C-30.24550609 26.29976702 -32.10297427 26.33386134 -33.96020508 26.37719727 C-36.63387358 26.43801124 -39.30623365 26.4662452 -41.98046875 26.48828125 C-43.2213752 26.52699089 -43.2213752 26.52699089 -44.48735046 26.56648254 C-48.79279383 26.56856597 -50.49208507 26.38704714 -54.02856445 23.69213867 C-56 21 -56 21 -56.5625 17.4375 C-55.92128811 13.51898289 -55.10500781 12.37441774 -52 10 C-49.65780645 8.82890323 -48.32825079 8.89293423 -45.72143555 8.92163086 C-44.83679123 8.92750717 -43.95214691 8.93338348 -43.04069519 8.93943787 C-42.08238297 8.94782181 -41.12407074 8.95620575 -40.13671875 8.96484375 C-38.11522929 8.96113057 -36.09374291 8.95520154 -34.07226562 8.94726562 C-30.87850759 8.93670409 -27.68698103 8.93750623 -24.4934082 8.97583008 C-21.4149398 9.00893701 -18.3401778 8.99137014 -15.26171875 8.96484375 C-14.30947922 8.98739731 -13.35723969 9.00995087 -12.37614441 9.03318787 C-9.68401378 8.98444348 -7.54943557 8.87362824 -5 8 C-2.71471302 5.58483041 -1.30083036 3.04552504 0 0 Z " fill="#D99E81" transform="translate(98,149)"/>
<path d="M0 0 C1.18914505 -0.00137466 2.3782901 -0.00274933 3.60346985 -0.00416565 C4.91473343 -0.00057037 6.22599701 0.0030249 7.57699585 0.00672913 C8.96643573 0.00701108 10.35587576 0.0068531 11.74531555 0.00628662 C15.5240152 0.00599898 19.3026833 0.01189039 23.0813756 0.01886058 C27.02786125 0.02509959 30.97434758 0.02569835 34.9208374 0.02688599 C42.39708849 0.02999768 49.87332501 0.0382089 57.34956968 0.04823548 C65.85973025 0.05940162 74.3698915 0.06490833 82.88005757 0.06993091 C100.38890872 0.08039164 117.89774567 0.09798796 135.40658569 0.12025452 C133.44488578 2.49494389 131.44028728 4.80796443 129.40658569 7.12025452 C128.68677426 7.99432733 127.96696283 8.86840014 127.22533894 9.76896 C123.02163681 14.51108831 119.9176869 17.66486774 113.45423889 18.35644531 C111.23133429 18.40014978 109.00692374 18.38990691 106.78427124 18.33485413 C104.9507032 18.34909172 104.9507032 18.34909172 103.08009338 18.36361694 C99.75578066 18.37887781 96.43779512 18.34988977 93.1142385 18.29885173 C89.62529221 18.25462197 86.13643214 18.26374243 82.64726257 18.26565552 C76.79554821 18.26098883 70.94513905 18.21778586 65.09384155 18.14930725 C58.33602911 18.07051025 51.57963995 18.04432369 44.8214013 18.04798502 C37.607766 18.05136467 30.39467635 18.01666897 23.18120599 17.970752 C21.10887266 17.96011402 19.03662776 17.95654883 16.96426964 17.95455742 C13.10297951 17.94859114 9.24286613 17.89999745 5.38192749 17.84657288 C4.23742126 17.84883881 3.09291504 17.85110474 1.91372681 17.85343933 C-5.79517391 17.6972633 -5.79517391 17.6972633 -9.80671692 14.79751587 C-12.15862645 11.27331723 -12.27353892 9.27657162 -11.59341431 5.12025452 C-8.05827159 0.64240708 -5.52942092 -0.00491068 0 0 Z " fill="#99AAB4" transform="translate(53.593414306640625,57.87974548339844)"/>
<path d="M0 0 C7.59847285 4.61335851 13.79282779 11.90560086 20.04956055 18.16333008 C21.60611234 19.71767121 23.17053559 21.26379874 24.73535156 22.80981445 C25.7377929 23.80932505 26.73976316 24.80930838 27.74121094 25.80981445 C28.63815674 26.70265137 29.53510254 27.59548828 30.45922852 28.51538086 C34.74605401 33.25011052 36.5602364 37.11600344 37.03417969 43.39575195 C36.53380403 50.77629295 33.24332254 55.10569427 28.60058594 60.5793457 C26.78417969 62.08325195 26.78417969 62.08325195 22.78417969 62.08325195 C20.36700439 60.14709473 20.36700439 60.14709473 17.6484375 57.40161133 C17.1504213 56.90417923 16.65240509 56.40674713 16.13929749 55.89424133 C14.49564135 54.24779862 12.86660499 52.58764222 11.23730469 50.92700195 C10.10046323 49.78270017 8.96273536 48.63927839 7.82415771 47.4967041 C4.82980177 44.48707553 1.84765121 41.46562862 -1.13214111 38.44158936 C-4.1749086 35.35790458 -7.22903087 32.28551204 -10.28222656 29.2121582 C-16.27128222 23.1802029 -22.24749475 17.13571906 -28.21582031 11.08325195 C-27.27133651 9.9629625 -26.32420563 8.84490439 -25.37597656 7.7277832 C-24.84883057 7.10492432 -24.32168457 6.48206543 -23.77856445 5.84033203 C-17.28871155 -1.45657022 -9.24124611 -4.43919826 0 0 Z " fill="#EB586D" transform="translate(259.2158203125,5.916748046875)"/>
<path d="M0 0 C1.59558495 -0.00087616 1.59558495 -0.00087616 3.22340393 -0.00177002 C6.7407388 0.00101756 10.25722716 0.0321427 13.77441406 0.06347656 C16.21249936 0.07093652 18.65059065 0.07663061 21.08868408 0.08062744 C27.50694319 0.09590289 33.92484044 0.13520179 40.34295654 0.17944336 C46.89167384 0.22035449 53.44044957 0.23862961 59.98925781 0.25878906 C72.83967264 0.30169368 85.68983661 0.36920014 98.54003906 0.45410156 C98.14802653 0.90287061 97.756014 1.35163965 97.35212231 1.81400776 C95.01976101 4.50544709 92.75931966 7.13638214 90.73420715 10.07060242 C87.47077704 14.30939679 84.45506387 16.56140171 79.13754272 17.25869751 C73.505672 17.68053445 67.88144977 17.57365477 62.23925781 17.47363281 C60.15420823 17.46699152 58.06914524 17.4637644 55.98408508 17.46379089 C51.62857453 17.45452477 47.27474207 17.41541577 42.91967773 17.3527832 C37.3362353 17.27328362 31.75444202 17.25112384 26.17048931 17.24893665 C21.87156621 17.24396746 17.57299637 17.21771024 13.27420998 17.18405724 C11.21493174 17.1688164 9.15561448 17.15814156 7.09628868 17.15210915 C4.22359736 17.13874019 1.35252212 17.09886952 -1.51977539 17.05102539 C-2.79544876 17.05138794 -2.79544876 17.05138794 -4.09689331 17.05175781 C-9.85012056 16.91586179 -9.85012056 16.91586179 -12.98551941 14.54179382 C-14.5834535 12.27924589 -15.00278197 11.19464733 -14.95996094 8.45410156 C-14.97542969 7.46410156 -14.97542969 7.46410156 -14.99121094 6.45410156 C-13.00414395 -1.02662121 -6.31724564 -0.09041053 0 0 Z " fill="#98A9B4" transform="translate(56.4599609375,91.5458984375)"/>
<path d="M0 0 C0.73224792 -0.00073013 1.46449585 -0.00146027 2.21893311 -0.00221252 C4.62743488 0.00125737 7.03397691 0.04008567 9.44213867 0.0793457 C11.11650028 0.08867607 12.79087558 0.09579113 14.46525574 0.1007843 C18.86325038 0.11983679 23.26041386 0.16892173 27.65808105 0.2243042 C32.14913693 0.2755349 36.64032767 0.29830645 41.1315918 0.32348633 C49.93731093 0.37704289 58.74235566 0.46233353 67.54760742 0.56762695 C66.21695187 2.17842051 64.87514524 3.78067097 63.49491882 5.34919739 C62.09500397 6.94401807 60.73307796 8.572482 59.39680481 10.22099304 C55.03722926 15.19450124 51.90746725 18.14508828 45.16748047 18.75048828 C42.79792945 18.76897523 40.42748866 18.73284618 38.05932617 18.6496582 C36.79796341 18.64262375 35.53660065 18.63558929 34.23701477 18.62834167 C31.58368323 18.60456142 28.93909418 18.56271126 26.28759766 18.48681641 C22.90029156 18.39018232 19.51547187 18.35071351 16.12692547 18.33214283 C12.87490877 18.31182701 9.62349732 18.26254595 6.37182617 18.2121582 C4.55457283 18.18832817 4.55457283 18.18832817 2.7006073 18.16401672 C1.57205826 18.1319664 0.44350922 18.09991608 -0.71923828 18.06689453 C-2.20288628 18.03164421 -2.20288628 18.03164421 -3.71650696 17.99568176 C-6.91231291 17.49566813 -8.84376326 16.45387328 -11.45239258 14.56762695 C-13.02174852 11.42891508 -12.80440361 9.02906873 -12.45239258 5.56762695 C-8.78947801 0.77018157 -5.80308326 -0.15266208 0 0 Z " fill="#99AAB5" transform="translate(54.452392578125,124.432373046875)"/>
<path d="M0 0 C1.35117416 0.0001133 1.35117416 0.0001133 2.72964478 0.00022888 C3.70364227 0.00539017 4.67763977 0.01055145 5.68115234 0.01586914 C6.67714447 0.01728409 7.6731366 0.01869904 8.6993103 0.02015686 C11.88860037 0.02576603 15.0778209 0.03832009 18.26708984 0.05102539 C20.425943 0.05603921 22.58479725 0.06060232 24.74365234 0.06469727 C30.04315841 0.07573844 35.34261233 0.09300925 40.64208984 0.11352539 C38.66208984 5.72352539 36.68208984 11.33352539 34.64208984 17.11352539 C29.03574106 17.22846193 23.43349364 17.3279495 17.8269043 17.38818359 C15.92083878 17.41329538 14.01486925 17.44739184 12.10913086 17.49072266 C9.36596987 17.55152283 6.62408398 17.57976784 3.88037109 17.60180664 C2.60665398 17.64051628 2.60665398 17.64051628 1.3072052 17.68000793 C-3.05086859 17.68206408 -4.81949902 17.52196777 -8.40014648 14.80566406 C-10.35791016 12.11352539 -10.35791016 12.11352539 -10.92041016 8.55102539 C-10.27919827 4.63250828 -9.46291796 3.48794313 -6.35791016 1.11352539 C-4.00590956 -0.06247491 -2.62056615 -0.00732002 0 0 Z " fill="#99AAB5" transform="translate(52.35791015625,157.886474609375)"/>
<path d="M0 0 C6.15741395 5.11512131 11.86674515 10.63421988 17.5625 16.25390625 C18.29944092 16.98098943 18.29944092 16.98098943 19.05126953 17.72276115 C21.64061232 20.27977171 24.22604796 22.84067065 26.80908203 25.40405273 C28.94271157 27.51974711 31.0845743 29.62655992 33.23388672 31.72631836 C35.84229869 34.27470043 38.43582968 36.83735478 41.01925659 39.41105461 C42.0029892 40.38622257 42.99185254 41.35624296 43.98587036 42.32092476 C45.36905283 43.66538283 46.73194464 45.03062185 48.09375 46.39672852 C48.87427734 47.16694839 49.65480469 47.93716827 50.45898438 48.73072815 C52 51 52 51 51.86914062 53.66270447 C51 56 51 56 49 58 C46.69734192 58.41186523 46.69734192 58.41186523 44 58 C41.50053406 56.10180664 41.50053406 56.10180664 38.8425293 53.41015625 C38.35412064 52.92247772 37.86571198 52.43479919 37.36250305 51.93234253 C35.75426964 50.32063117 34.1644605 48.69194969 32.57421875 47.0625 C31.46144718 45.94040107 30.34756505 44.81940247 29.23262024 43.69946289 C26.30341293 40.75117989 23.38953082 37.78819111 20.47857666 34.82189941 C17.50458547 31.79672861 14.51636027 28.78569157 11.52929688 25.7734375 C5.6721647 19.86270754 -0.1688547 13.9363679 -6 8 C-4.44805246 4.67240077 -2.69378051 2.51419515 0 0 Z " fill="#9AABB6" transform="translate(224,23)"/>
<path d="M0 0 C3.71708993 1.55910778 6.11502803 3.84373999 8.96801758 6.66162109 C9.68819061 7.36930885 9.68819061 7.36930885 10.4229126 8.09129333 C12.00223921 9.64659629 13.57386812 11.20938889 15.14453125 12.7734375 C16.23972628 13.85966502 17.33499817 14.94581504 18.43034363 16.03189087 C20.72120621 18.30628499 23.00765725 20.58501746 25.29174805 22.86621094 C28.22354178 25.79260298 31.17117437 28.70247249 34.12296009 31.60867882 C36.38840178 33.84443762 38.64256575 36.0913071 40.893713 38.34144974 C41.97614275 39.41966481 43.0627071 40.49374523 44.15339088 41.56361008 C45.67395035 43.05741896 47.17802 44.56609994 48.67895508 46.07958984 C49.53959061 46.93515472 50.40022614 47.7907196 51.28694153 48.67221069 C53 51 53 51 52.89506531 53.23721313 C51.70925426 55.57260937 50.35275019 55.97067179 48 57 C47.505 57.99 47.505 57.99 47 59 C29.84 41.84 12.68 24.68 -5 7 C-3.38262276 3.76524552 -2.52370777 2.29427979 0 0 Z " fill="#98A9B4" transform="translate(210,37)"/>
<path d="M0 0 C1.70542969 -0.04930664 1.70542969 -0.04930664 3.4453125 -0.09960938 C12.78565356 -0.159905 12.78565356 -0.159905 15.875 2.77734375 C17.625 5.4375 17.625 5.4375 18.25 8.4375 C17.38128497 12.60733215 16.0192932 13.86626061 12.625 16.4375 C9.24536401 17.12082538 5.94777905 17.02045204 2.51171875 16.92578125 C1.54216751 16.91870651 0.57261627 16.91163177 -0.42631531 16.90434265 C-3.51417137 16.87641874 -6.60019475 16.81368303 -9.6875 16.75 C-11.78447897 16.72491458 -13.88148644 16.70210184 -15.97851562 16.68164062 C-21.11138009 16.62659838 -26.24287964 16.54033859 -31.375 16.4375 C-27.96845105 12.9941177 -24.51281495 9.80275208 -20.75 6.75 C-19.80898437 5.98300781 -18.86796875 5.21601563 -17.8984375 4.42578125 C-11.86643661 -0.32698725 -7.47897004 0.03790019 0 0 Z " fill="#98A9B4" transform="translate(207.375,191.5625)"/>
<path d="M0 0 C1.15680267 0.00848969 1.15680267 0.00848969 2.3369751 0.01715088 C4.79299779 0.03948911 7.24754555 0.08967737 9.703125 0.140625 C11.37107263 0.16069346 13.03904321 0.17894363 14.70703125 0.1953125 C18.78962823 0.23934508 22.87112681 0.30835217 26.953125 0.390625 C26.49991172 2.45425612 26.04033394 4.51649007 25.578125 6.578125 C25.19527344 8.30095703 25.19527344 8.30095703 24.8046875 10.05859375 C24.05840048 12.97869848 23.14880712 15.63015889 21.953125 18.390625 C21.458125 17.400625 21.458125 17.400625 20.953125 16.390625 C19.66680176 16.4220459 19.66680176 16.4220459 18.35449219 16.45410156 C15.16394028 16.52239027 11.97376154 16.57248013 8.78271484 16.61035156 C7.4033582 16.63043142 6.02408631 16.65770166 4.64501953 16.69238281 C2.65955521 16.74105317 0.67346246 16.76148918 -1.3125 16.78125 C-2.50649414 16.80219727 -3.70048828 16.82314453 -4.93066406 16.84472656 C-8.65166056 16.30249423 -9.78863102 15.33277086 -12.046875 12.390625 C-12.578125 10.390625 -12.578125 10.390625 -12.546875 8.390625 C-12.56234375 7.400625 -12.56234375 7.400625 -12.578125 6.390625 C-10.86703892 -0.05111083 -5.71698176 -0.15844008 0 0 Z " fill="#98A9B4" transform="translate(54.046875,191.609375)"/>
<path d="M0 0 C1.68319336 0.03383789 1.68319336 0.03383789 3.40039062 0.06835938 C6.16412536 0.12716224 8.92512554 0.20929599 11.6875 0.3125 C13.46546353 3.59482781 13.83185878 5.23243701 13.1875 8.9375 C12.74218618 11.22442958 12.74218618 11.22442958 12.6875 13.3125 C15.04703094 15.67203094 16.46645617 15.80391413 19.6875 16.3125 C19.6875 16.6425 19.6875 16.9725 19.6875 17.3125 C15.36421196 17.3869013 11.04126745 17.44121968 6.7175293 17.47729492 C5.24806218 17.49234066 3.77863966 17.51278238 2.30932617 17.53881836 C0.1917823 17.57538955 -1.92516565 17.59226801 -4.04296875 17.60546875 C-5.31551514 17.6211792 -6.58806152 17.63688965 -7.89916992 17.65307617 C-11.55472549 17.28833116 -13.41324358 16.5221128 -16.3125 14.3125 C-17.88185594 11.17378812 -17.66451103 8.77394178 -17.3125 5.3125 C-13.00651417 -1.3430772 -7.12596682 -0.27071177 0 0 Z " fill="#99AAB5" transform="translate(59.3125,224.6875)"/>
<path d="M0 0 C5.43665494 0.31980323 8.83093889 1.47945951 13 5 C15.8664889 8.7361976 17.58217215 12.1970798 17 17 C9.93790364 21.23725782 4.34033745 23.5560225 -4 23 C-6 21 -6 21 -6.4375 17.625 C-6.33577079 12.10110405 -3.97905602 3.97905602 0 0 Z " fill="#292F33" transform="translate(77,206)"/>
<path d="M0 0 C0.33 0.66 0.66 1.32 1 2 C-0.65 3.65 -2.3 5.3 -4 7 C-4.99 6.67 -5.98 6.34 -7 6 C-4.69 4.02 -2.38 2.04 0 0 Z " fill="#9DADB7" transform="translate(224,168)"/>
</svg>
